:FULLY-SPECIFIED
:FORCE-ALL-JOINTS-BE-3DOF
:DEGREES
204
root -2.899 16.313 -36.1133 3.78416 0.670393 -2.92242
lfemur -23.862 6.69929 -8.18844
ltibia 48.5463 0 0
lfoot -23.7436 0.388792 0
ltoes -9.76072 0 0
rfemur -23.804 -7.51247 14.6538
rtibia 50.6203 0 0
rfoot -27.5729 2.0329 0
rtoes -8.28122 0 0
lowerback 7.27427 1.95467 -1.69383
upperback -3.75903 2.54001 1.29861
thorax -8.18726 1.37435 1.95839
lowerneck -3.31943 -4.02155 -6.65184
upperneck 6.80027 -5.43224 6.13648
head 3.21101 -2.67513 3.01026
lclavicle -1.40103e-14 1.72631e-16 0
lhumerus -26.5533 -1.86116 88.7758
lradius 24.3012 0 0
lwrist -31.4155 0 0
lhand -28.2333 30.09 0
lfingers 7.12502 0 0
lthumb -1.6113 60.0637 0
rclavicle -1.40103e-14 1.72631e-16 0
rhumerus -32.2488 1.99409 -79.9386
rradius 30.4394 0 0
rwrist 3.11542 0 0
rhand -20.1021 -26.8346 0
rfingers 7.12502 0 0
rthumb 6.24118 -56.7227 0
205
root -2.90019 16.3091 -36.112 3.77665 0.669898 -2.92367
lfemur -23.8829 6.71377 -8.17926
ltibia 48.6132 0 0
lfoot -23.779 0.392891 0
ltoes -9.78848 0 0
rfemur -23.8258 -7.54034 14.656
rtibia 50.6881 0 0
rfoot -27.6107 2.04972 0
rtoes -8.28797 0 0
lowerback 7.28236 1.9542 -1.69475
upperback -3.75356 2.53933 1.30103
thorax -8.18621 1.37407 1.9614
lowerneck -3.37483 -3.97349 -6.59881
upperneck 6.85037 -5.36608 6.08361
head 3.23193 -2.64211 2.9855
lclavicle -1.35553e-14 3.45875e-16 0
lhumerus -26.5506 -1.87634 88.785
lradius 24.3098 0 0
lwrist -31.3951 0 0
lhand -28.2315 30.1022 0
lfingers 7.12502 0 0
lthumb -1.60957 60.0759 0
rclavicle -1.35553e-14 3.45875e-16 0
rhumerus -32.2344 1.99963 -79.9398
rradius 30.4481 0 0
rwrist 3.11884 0 0
rhand -20.0926 -26.8287 0
rfingers 7.12502 0 0
rthumb 6.25035 -56.7165 0
206
root -2.90138 16.305 -36.1106 3.76868 0.66911 -2.9246
lfemur -23.9054 6.72898 -8.17025
ltibia 48.6848 0 0
lfoot -23.8168 0.397708 0
ltoes -9.81773 0 0
rfemur -23.8493 -7.56976 14.6577
rtibia 50.7605 0 0
rfoot -27.6509 2.06737 0
rtoes -8.29546 0 0
lowerback 7.29131 1.95374 -1.69565
upperback -3.74773 2.53866 1.30361
thorax -8.18527 1.37379 1.96455
lowerneck -3.43602 -3.91994 -6.54011
upperneck 6.9053 -5.29236 6.02499
head 3.25484 -2.60532 2.95808
lclavicle -1.30647e-14 4.96962e-16 0
lhumerus -26.5489 -1.89002 88.794
lradius 24.3179 0 0
lwrist -31.374 0 0
lhand -28.2296 30.1145 0
lfingers 7.12502 0 0
lthumb -1.6077 60.0882 0
rclavicle -1.30647e-14 4.96962e-16 0
rhumerus -32.2196 2.00376 -79.9386
rradius 30.4557 0 0
rwrist 3.12415 0 0
rhand -20.0827 -26.8213 0
rfingers 7.12502 0 0
rthumb 6.25995 -56.7088 0
207
root -2.90278 16.3012 -36.1088 3.75723 0.651896 -2.92379
lfemur -23.9199 6.72881 -8.15743
ltibia 48.7412 0 0
lfoot -23.8542 0.38649 0
ltoes -9.86124 0 0
rfemur -23.8686 -7.59135 14.657
rtibia 50.8288 0 0
rfoot -27.6941 2.09706 0
rtoes -8.28975 0 0
lowerback 7.29764 1.95332 -1.70059
upperback -3.74168 2.53725 1.3052
thorax -8.18269 1.37339 1.96913
lowerneck -3.50021 -3.87028 -6.48377
upperneck 6.96453 -5.22387 5.97089
head 3.27897 -2.57101 2.93204
lclavicle -1.25199e-14 6.44218e-16 0
lhumerus -26.5546 -1.89103 88.8136
lradius 24.2747 0 0
lwrist -31.3873 0 0
lhand -28.2332 30.1131 0
lfingers 7.12502 0 0
lthumb -1.61121 60.0869 0
rclavicle -1.25199e-14 6.44218e-16 0
rhumerus -32.1943 1.98322 -79.9255
rradius 30.4203 0 0
rwrist 3.15884 0 0
rhand -20.1092 -26.8172 0
rfingers 7.12502 0 0
rthumb 6.23573 -56.7177 0
208
root -2.9046 16.2982 -36.1061 3.73962 0.603746 -2.91997
lfemur -23.9178 6.69866 -8.13724
ltibia 48.7639 0 0
lfoot -23.8884 0.344107 0
ltoes -9.93034 0 0
rfemur -23.8779 -7.5965 14.6523
rtibia 50.8848 0 0
rfoot -27.7405 2.14882 0
rtoes -8.25823 0 0
lowerback 7.29817 1.95298 -1.71319
upperback -3.73558 2.53443 1.30475
thorax -8.17689 1.37276 1.9763
lowerneck -3.56444 -3.83334 -6.43741
upperneck 7.02719 -5.17268 5.93101
head 3.30345 -2.54506 2.91123
lclavicle -1.19064e-14 8.06137e-16 0
lhumerus -26.5735 -1.86947 88.8536
lradius 24.1343 0 0
lwrist -31.4668 0 0
lhand -28.2476 30.0858 0
lfingers 7.12502 0 0
lthumb -1.6251 60.0599 0
rclavicle -1.19064e-14 8.06137e-16 0
rhumerus -32.1496 1.91717 -79.892
rradius 30.3043 0 0
rwrist 3.24752 0 0
rhand -20.2055 -26.8209 0
rfingers 7.12502 0 0
rthumb 6.14684 -56.7596 0
209
root -2.9068 16.296 -36.1026 3.71633 0.52709 -2.91336
lfemur -23.9002 6.64085 -8.11031
ltibia 48.7557 0 0
lfoot -23.9195 0.273024 0
ltoes -10.0229 0 0
rfemur -23.878 -7.58644 14.644
rtibia 50.9291 0 0
rfoot -27.7898 2.22085 0
rtoes -8.20288 0 0
lowerback 7.29336 1.95272 -1.73287
upperback -3.72944 2.53031 1.30244
thorax -8.16814 1.37191 1.98585
lowerneck -3.62867 -3.80812 -6.40026
upperneck 7.09296 -5.13742 5.90422
head 3.32824 -2.52682 2.89524
lclavicle -1.12296e-14 9.81123e-16 0
lhumerus -26.6046 -1.82709 88.9126
lradius 23.9045 0 0
lwrist -31.6073 0 0
lhand -28.2719 30.0346 0
lfingers 7.12502 0 0
lthumb -1.64855 60.009 0
rclavicle -1.12296e-14 9.81123e-16 0
rhumerus -32.087 1.80917 -79.8398
rradius 30.114 0 0
rwrist 3.38594 0 0
rhand -20.3659 -26.8319 0
rfingers 7.12502 0 0
rthumb 5.99839 -56.832 0
210
root -2.90934 16.2946 -36.0985 3.68787 0.424358 -2.90417
lfemur -23.8684 6.5577 -8.07727
ltibia 48.7188 0 0
lfoot -23.9477 0.175708 0
ltoes -10.137 0 0
rfemur -23.8696 -7.56237 14.6324
rtibia 50.9628 0 0
rfoot -27.8416 2.31138 0
rtoes -8.12573 0 0
lowerback 7.28368 1.95253 -1.75901
upperback -3.72328 2.52502 1.2984
thorax -8.15671 1.37087 1.99758
lowerneck -3.69287 -3.7936 -6.37152
upperneck 7.16154 -5.11672 5.8894
head 3.35329 -2.51562 2.88364
lclavicle -1.0495e-14 1.16758e-15 0
lhumerus -26.6469 -1.76564 88.9887
lradius 23.5929 0 0
lwrist -31.8036 0 0
lhand -28.3053 29.9615 0
lfingers 7.12502 0 0
lthumb -1.68076 59.9364 0
rclavicle -1.0495e-14 1.16758e-15 0
rhumerus -32.0081 1.66279 -79.7704
rradius 29.8557 0 0
rwrist 3.56987 0 0
rhand -20.5851 -26.8494 0
rfingers 7.12502 0 0
rthumb 5.79546 -56.9322 0
211
root -2.91218 16.2938 -36.0937 3.6547 0.297979 -2.89263
lfemur -23.8236 6.45152 -8.03875
ltibia 48.6558 0 0
lfoot -23.9733 0.0546244 0
ltoes -10.2703 0 0
rfemur -23.8534 -7.52554 14.6176
rtibia 50.9865 0 0
rfoot -27.8956 2.41865 0
rtoes -8.02877 0 0
lowerback 7.26957 1.95241 -1.79102
upperback -3.7171 2.51865 1.2928
thorax -8.14286 1.36965 2.01127
lowerneck -3.75701 -3.78878 -6.35043
upperneck 7.2326 -5.10919 5.88543
head 3.37855 -2.5108 2.87605
lclavicle -9.70782e-15 1.36391e-15 0
lhumerus -26.6993 -1.68687 89.0803
lradius 23.2071 0 0
lwrist -32.0504 0 0
lhand -28.3468 29.8686 0
lfingers 7.12502 0 0
lthumb -1.72091 59.844 0
rclavicle -9.70782e-15 1.36391e-15 0
rhumerus -31.9145 1.48157 -79.6853
rradius 29.5358 0 0
rwrist 3.79507 0 0
rhand -20.8575 -26.8729 0
rfingers 7.12502 0 0
rthumb 5.54317 -57.0576 0
212
root -2.91529 16.2936 -36.0884 3.61733 0.150382 -2.87896
lfemur -23.7671 6.32463 -7.99538
ltibia 48.5692 0 0
lfoot -23.9963 -0.0877608 0
ltoes -10.421 0 0
rfemur -23.8302 -7.47714 14.6
rtibia 51.001 0 0
rfoot -27.9514 2.54087 0
rtoes -7.91401 0 0
lowerback 7.25152 1.95234 -1.82828
upperback -3.71092 2.51133 1.2858
thorax -8.12686 1.36828 2.02671
lowerneck -3.82104 -3.79263 -6.33618
upperneck 7.30584 -5.11346 5.8912
head 3.40396 -2.51169 2.87203
lclavicle -8.8735e-15 1.56852e-15 0
lhumerus -26.7609 -1.59254 89.1859
lradius 22.7548 0 0
lwrist -32.3426 0 0
lhand -28.3958 29.7578 0
lfingers 7.12502 0 0
lthumb -1.76819 59.7339 0
rclavicle -8.8735e-15 1.56852e-15 0
rhumerus -31.8078 1.26909 -79.5861
rradius 29.1605 0 0
rwrist 4.0573 0 0
rhand -21.1776 -26.9017 0
rfingers 7.12502 0 0
rthumb 5.2466 -57.2056 0
213
root -2.91861 16.294 -36.0825 3.57623 -0.0160026 -2.86336
lfemur -23.7001 6.17936 -7.9478
ltibia 48.4614 0 0
lfoot -24.0169 -0.248982 0
ltoes -10.5868 0 0
rfemur -23.8006 -7.41842 14.5798
rtibia 51.0073 0 0
rfoot -28.0087 2.67626 0
rtoes -7.78346 0 0
lowerback 7.22997 1.95233 -1.87019
upperback -3.70475 2.50316 1.27755
thorax -8.10895 1.36676 2.04371
lowerneck -3.88495 -3.80416 -6.32801
upperneck 7.38094 -5.12817 5.90558
head 3.42948 -2.51762 2.87119
lclavicle -7.99742e-15 1.77981e-15 0
lhumerus -26.8307 -1.48439 89.3038
lradius 22.2436 0 0
lwrist -32.6749 0 0
lhand -28.4513 29.6312 0
lfingers 7.12502 0 0
lthumb -1.82179 59.6081 0
rclavicle -7.99742e-15 1.77981e-15 0
rhumerus -31.6895 1.02889 -79.4744
rradius 28.7361 0 0
rwrist 4.35233 0 0
rhand -21.54 -26.9353 0
rfingers 7.12502 0 0
rthumb 4.91086 -57.3736 0
214
root -2.92212 16.2948 -36.0763 3.5319 -0.198745 -2.84607
lfemur -23.6239 6.01801 -7.89662
ltibia 48.335 0 0
lfoot -24.0354 -0.426572 0
ltoes -10.7657 0 0
rfemur -23.7655 -7.35058 14.5574
rtibia 51.0061 0 0
rfoot -28.0671 2.82306 0
rtoes -7.63912 0 0
lowerback 7.20538 1.95238 -1.91615
upperback -3.6986 2.49425 1.26821
thorax -8.08942 1.36513 2.06205
lowerneck -3.94869 -3.82234 -6.32511
upperneck 7.45758 -5.15192 5.92746
head 3.45506 -2.52794 2.87312
lclavicle -7.08495e-15 1.99618e-15 0
lhumerus -26.9076 -1.36417 89.4324
lradius 21.6813 0 0
lwrist -33.0421 0 0
lhand -28.5125 29.4909 0
lfingers 7.12502 0 0
lthumb -1.8809 59.4686 0
rclavicle -7.08495e-15 1.99618e-15 0
rhumerus -31.5613 0.764544 -79.3517
rradius 28.2691 0 0
rwrist 4.67591 0 0
rhand -21.9391 -26.9729 0
rfingers 7.12502 0 0
rthumb 4.54104 -57.5589 0
215
root -2.92578 16.2961 -36.0697 3.48483 -0.395417 -2.82729
lfemur -23.5398 5.84292 -7.84249
ltibia 48.1925 0 0
lfoot -24.0518 -0.618066 0
ltoes -10.9556 0 0
rfemur -23.7255 -7.27486 14.5329
rtibia 50.9983 0 0
rfoot -28.1263 2.97948 0
rtoes -7.48299 0 0
lowerback 7.17823 1.95246 -1.96556
upperback -3.69248 2.48473 1.25793
thorax -8.06852 1.3634 2.08152
lowerneck -4.01223 -3.84617 -6.32672
upperneck 7.53544 -5.18336 5.95572
head 3.48065 -2.54197 2.8774
lclavicle -6.14147e-15 2.21605e-15 0
lhumerus -26.9905 -1.23364 89.57
lradius 21.0753 0 0
lwrist -33.4391 0 0
lhand -28.5786 29.3388 0
lfingers 7.12502 0 0
lthumb -1.94471 59.3175 0
rclavicle -6.14147e-15 2.21605e-15 0
rhumerus -31.4246 0.479604 -79.2196
rradius 27.7656 0 0
rwrist 5.02381 0 0
rhand -22.3694 -27.014 0
rfingers 7.12502 0 0
rthumb 4.14226 -57.759 0
